<svg xmlns="http://www.w3.org/2000/svg" id="Calque_2" data-name="Calque 2" viewBox="0 0 155.99 38.34"><g id="Ebene_1" data-name="Ebene 1"><g><path d="M29.91,6.54c.31,.2,.67,.31,1.16,.31,.65,0,1.18-.33,1.18-1.07,0-1.03-2.4-1.16-2.4-2.53,0-.84,.74-1.37,1.66-1.37,.25,0,.67,.04,1.03,.17l-.08,.47c-.23-.13-.6-.2-.95-.2-.54,0-1.13,.23-1.13,.9,0,1.05,2.4,1.06,2.4,2.59,0,1.06-.91,1.48-1.72,1.48-.51,0-.91-.1-1.19-.23l.05-.53Z" style="fill: #1d1d1b;"></path><path d="M36.83,3.89c-.25-.11-.56-.19-.82-.19-.92,0-1.44,.67-1.44,1.6,0,.87,.53,1.6,1.39,1.6,.3,0,.58-.07,.86-.17l.04,.44c-.32,.11-.62,.13-.98,.13-1.23,0-1.83-.94-1.83-2,0-1.18,.76-2,1.89-2,.46,0,.79,.1,.92,.15l-.04,.45Z" style="fill: #1d1d1b;"></path><path d="M38.26,1.58h.47v2.45h.02c.2-.42,.63-.74,1.19-.74,1.03,0,1.31,.68,1.31,1.63v2.29h-.47v-2.28c0-.66-.13-1.23-.91-1.23-.84,0-1.13,.8-1.13,1.46v2.05h-.47V1.58Z" style="fill: #1d1d1b;"></path><path d="M46.95,7.2h-.57l-1.04-3.31h-.02l-1.04,3.31h-.57l-1.23-3.83h.52l1.01,3.31h.02l1.07-3.31h.57l1.01,3.31h.01l1.06-3.31h.47l-1.26,3.83Z" style="fill: #1d1d1b;"></path><path d="M52.01,7.08c-.33,.14-.76,.21-1.11,.21-1.27,0-1.74-.86-1.74-2s.65-2,1.61-2c1.08,0,1.52,.87,1.52,1.9v.24h-2.62c0,.81,.44,1.46,1.26,1.46,.35,0,.85-.14,1.07-.29v.48Zm-.23-2.06c0-.67-.27-1.33-.98-1.33s-1.13,.7-1.13,1.33h2.1Z" style="fill: #1d1d1b;"></path><path d="M54.25,2.36h-.47v-.63h.47v.63Zm-.47,1.02h.47v3.83h-.47V3.38Z" style="fill: #1d1d1b;"></path><path d="M55.67,6.81l2.3-3.02h-2.21v-.41h2.76v.41l-2.3,3.02h2.3v.41h-2.85v-.4Z" style="fill: #1d1d1b;"></path><path d="M62.51,7.08c-.33,.14-.76,.21-1.11,.21-1.27,0-1.74-.86-1.74-2s.65-2,1.61-2c1.08,0,1.52,.87,1.52,1.9v.24h-2.62c0,.81,.44,1.46,1.26,1.46,.35,0,.85-.14,1.07-.29v.48Zm-.23-2.06c0-.67-.27-1.33-.98-1.33s-1.13,.7-1.13,1.33h2.1Z" style="fill: #1d1d1b;"></path><path d="M64.28,4.23c0-.42,0-.58-.03-.86h.47v.74h.01c.17-.43,.5-.83,.98-.83,.11,0,.25,.02,.33,.04v.5c-.1-.03-.23-.05-.35-.05-.75,0-.95,.84-.95,1.53v1.89h-.47v-2.97Z" style="fill: #1d1d1b;"></path><path d="M67.84,2.36h-.47v-.63h.47v.63Zm-.47,1.02h.47v3.83h-.47V3.38Z" style="fill: #1d1d1b;"></path><path d="M69.32,6.65c.29,.14,.63,.24,1,.24,.45,0,.85-.25,.85-.68,0-.91-1.84-.77-1.84-1.88,0-.76,.62-1.04,1.25-1.04,.2,0,.61,.04,.95,.17l-.04,.41c-.25-.11-.58-.18-.85-.18-.49,0-.83,.15-.83,.64,0,.71,1.88,.62,1.88,1.88,0,.81-.76,1.09-1.34,1.09-.37,0-.74-.04-1.07-.18l.05-.47Z" style="fill: #1d1d1b;"></path><path d="M75.61,3.89c-.25-.11-.56-.19-.82-.19-.92,0-1.44,.67-1.44,1.6,0,.87,.53,1.6,1.39,1.6,.3,0,.58-.07,.86-.17l.04,.44c-.32,.11-.62,.13-.98,.13-1.23,0-1.83-.94-1.83-2,0-1.18,.76-2,1.89-2,.46,0,.79,.1,.92,.15l-.04,.45Z" style="fill: #1d1d1b;"></path><path d="M77.04,1.58h.47v2.45h.02c.2-.42,.63-.74,1.19-.74,1.03,0,1.31,.68,1.31,1.63v2.29h-.47v-2.28c0-.66-.13-1.23-.91-1.23-.84,0-1.13,.8-1.13,1.46v2.05h-.47V1.58Z" style="fill: #1d1d1b;"></path><path d="M84.36,7.08c-.33,.14-.76,.21-1.11,.21-1.27,0-1.74-.86-1.74-2s.65-2,1.61-2c1.08,0,1.52,.87,1.52,1.9v.24h-2.62c0,.81,.44,1.46,1.26,1.46,.35,0,.85-.14,1.07-.29v.48Zm-.23-2.06c0-.67-.27-1.33-.98-1.33s-1.13,.7-1.13,1.33h2.1Z" style="fill: #1d1d1b;"></path><path d="M88.63,1.97h2.57v.45h-2.05v1.87h1.94v.45h-1.94v2.02h2.14v.45h-2.66V1.97Z" style="fill: #1d1d1b;"></path><path d="M93.39,2.36h-.47v-.63h.47v.63Zm-.47,1.02h.47v3.83h-.47V3.38Z" style="fill: #1d1d1b;"></path><path d="M98.2,7.2h-.47v-.61h-.01c-.26,.49-.65,.7-1.19,.7-1.05,0-1.58-.87-1.58-2s.45-2,1.58-2c.75,0,1.13,.55,1.19,.74h.01V1.58h.47V7.2Zm-1.61-.31c.84,0,1.13-.9,1.13-1.6s-.29-1.6-1.13-1.6c-.9,0-1.13,.86-1.13,1.6s.23,1.6,1.13,1.6Z" style="fill: #1d1d1b;"></path><path d="M102.95,6.89c0,1.07-.48,1.94-1.79,1.94-.5,0-.96-.14-1.16-.2l.04-.47c.29,.15,.71,.27,1.13,.27,1.22,0,1.32-.89,1.32-1.97h-.02c-.25,.56-.68,.75-1.16,.75-1.22,0-1.61-1.07-1.61-1.91,0-1.16,.45-2,1.58-2,.51,0,.84,.07,1.19,.53h.01v-.44h.47v3.51Zm-1.64-.09c.86,0,1.16-.81,1.16-1.51,0-.92-.27-1.6-1.13-1.6s-1.13,.86-1.13,1.6,.3,1.51,1.1,1.51Z" style="fill: #1d1d1b;"></path><path d="M107.25,7.08c-.33,.14-.76,.21-1.11,.21-1.27,0-1.74-.86-1.74-2s.65-2,1.61-2c1.08,0,1.52,.87,1.52,1.9v.24h-2.62c0,.81,.44,1.46,1.26,1.46,.35,0,.85-.14,1.07-.29v.48Zm-.23-2.06c0-.67-.27-1.33-.98-1.33s-1.13,.7-1.13,1.33h2.1Z" style="fill: #1d1d1b;"></path><path d="M109.02,4.28c0-.29,0-.59-.03-.9h.46v.68h.02c.16-.35,.44-.77,1.24-.77,.95,0,1.31,.63,1.31,1.47v2.45h-.47v-2.33c0-.72-.25-1.19-.91-1.19-.86,0-1.13,.76-1.13,1.4v2.12h-.47v-2.93Z" style="fill: #1d1d1b;"></path><path d="M115.27,3.29c1.24,0,1.79,.96,1.79,2s-.55,2-1.79,2-1.79-.96-1.79-2,.55-2,1.79-2Zm0,3.6c.83,0,1.27-.71,1.27-1.6s-.44-1.6-1.27-1.6-1.27,.71-1.27,1.6,.44,1.6,1.27,1.6Z" style="fill: #1d1d1b;"></path><path d="M118.24,6.65c.29,.14,.63,.24,1,.24,.45,0,.85-.25,.85-.68,0-.91-1.84-.77-1.84-1.88,0-.76,.62-1.04,1.25-1.04,.2,0,.61,.04,.95,.17l-.04,.41c-.25-.11-.58-.18-.85-.18-.49,0-.83,.15-.83,.64,0,.71,1.88,.62,1.88,1.88,0,.81-.76,1.09-1.34,1.09-.37,0-.74-.04-1.07-.18l.04-.47Z" style="fill: #1d1d1b;"></path><path d="M121.74,6.65c.29,.14,.63,.24,1,.24,.45,0,.85-.25,.85-.68,0-.91-1.84-.77-1.84-1.88,0-.76,.62-1.04,1.25-1.04,.2,0,.61,.04,.95,.17l-.04,.41c-.25-.11-.58-.18-.85-.18-.49,0-.83,.15-.83,.64,0,.71,1.88,.62,1.88,1.88,0,.81-.76,1.09-1.34,1.09-.37,0-.74-.04-1.07-.18l.04-.47Z" style="fill: #1d1d1b;"></path><path d="M128.11,7.08c-.33,.14-.76,.21-1.11,.21-1.27,0-1.74-.86-1.74-2s.65-2,1.61-2c1.08,0,1.52,.87,1.52,1.9v.24h-2.62c0,.81,.44,1.46,1.26,1.46,.35,0,.85-.14,1.07-.29v.48Zm-.23-2.06c0-.67-.27-1.33-.98-1.33s-1.13,.7-1.13,1.33h2.1Z" style="fill: #1d1d1b;"></path><path d="M129.88,4.28c0-.29,0-.59-.03-.9h.46v.68h.02c.16-.35,.44-.77,1.24-.77,.95,0,1.31,.63,1.31,1.47v2.45h-.47v-2.33c0-.72-.25-1.19-.91-1.19-.86,0-1.13,.76-1.13,1.4v2.12h-.47v-2.93Z" style="fill: #1d1d1b;"></path><path d="M134.34,6.65c.29,.14,.63,.24,1,.24,.45,0,.85-.25,.85-.68,0-.91-1.84-.77-1.84-1.88,0-.76,.62-1.04,1.25-1.04,.2,0,.61,.04,.95,.17l-.04,.41c-.25-.11-.58-.18-.85-.18-.49,0-.83,.15-.83,.64,0,.71,1.88,.62,1.88,1.88,0,.81-.76,1.09-1.34,1.09-.37,0-.74-.04-1.07-.18l.04-.47Z" style="fill: #1d1d1b;"></path><path d="M140.63,3.89c-.25-.11-.56-.19-.82-.19-.92,0-1.44,.67-1.44,1.6,0,.87,.53,1.6,1.39,1.6,.3,0,.58-.07,.86-.17l.04,.44c-.32,.11-.62,.13-.98,.13-1.23,0-1.83-.94-1.83-2,0-1.18,.76-2,1.89-2,.46,0,.79,.1,.92,.15l-.04,.45Z" style="fill: #1d1d1b;"></path><path d="M142.06,1.58h.47v2.45h.02c.2-.42,.63-.74,1.19-.74,1.03,0,1.31,.68,1.31,1.63v2.29h-.47v-2.28c0-.66-.13-1.23-.91-1.23-.84,0-1.13,.8-1.13,1.46v2.05h-.47V1.58Z" style="fill: #1d1d1b;"></path><path d="M149.01,6.59h-.01c-.21,.46-.74,.71-1.22,.71-1.09,0-1.26-.74-1.26-1.08,0-1.28,1.37-1.34,2.36-1.34h.09v-.2c0-.65-.23-.98-.87-.98-.4,0-.77,.09-1.13,.31v-.46c.29-.14,.79-.26,1.13-.26,.95,0,1.34,.43,1.34,1.43v1.69c0,.31,0,.54,.04,.8h-.47v-.62Zm-.04-1.31h-.13c-.82,0-1.79,.08-1.79,.92,0,.5,.36,.69,.79,.69,1.11,0,1.13-.97,1.13-1.38v-.23Z" style="fill: #1d1d1b;"></path><path d="M151.47,3.78h-.77v-.41h.77v-.28c0-.8,.03-1.61,1.01-1.61,.15,0,.35,.02,.44,.08l-.03,.41c-.1-.05-.24-.08-.37-.08-.65,0-.58,.7-.58,1.16v.33h.86v.41h-.86v3.42h-.47V3.78Z" style="fill: #1d1d1b;"></path><path d="M155.88,3.78h-.87v2.48c0,.35,.13,.63,.51,.63,.18,0,.3-.04,.43-.09l.03,.39c-.11,.04-.34,.1-.58,.1-.84,0-.87-.58-.87-1.28V3.78h-.75v-.41h.75v-.92l.47-.17v1.09h.87v.41Z" style="fill: #1d1d1b;"></path><path d="M33.59,12.9c-.33-.17-.8-.23-1.17-.23-1.36,0-2.12,.96-2.12,2.26s.74,2.26,2.12,2.26c.35,0,.87-.04,1.17-.23l.03,.45c-.29,.17-.87,.23-1.2,.23-1.65,0-2.64-1.09-2.64-2.71s1.02-2.71,2.64-2.71c.31,0,.93,.05,1.2,.2l-.03,.48Z" style="fill: #1d1d1b;"></path><path d="M36.84,13.64c1.24,0,1.79,.96,1.79,2s-.55,2-1.79,2-1.79-.96-1.79-2,.55-2,1.79-2Zm0,3.6c.83,0,1.27-.71,1.27-1.6s-.44-1.6-1.27-1.6-1.27,.71-1.27,1.6,.44,1.6,1.27,1.6Z" style="fill: #1d1d1b;"></path><path d="M40.1,14.63c0-.29,0-.59-.03-.9h.46v.68h.02c.16-.35,.44-.77,1.24-.77,.95,0,1.31,.63,1.31,1.47v2.45h-.47v-2.33c0-.72-.25-1.19-.91-1.19-.86,0-1.13,.76-1.13,1.4v2.12h-.47v-2.93Z" style="fill: #1d1d1b;"></path><path d="M45.18,14.13h-.77v-.41h.77v-.28c0-.8,.03-1.61,1.01-1.61,.15,0,.35,.02,.44,.07l-.03,.41c-.1-.05-.24-.08-.38-.08-.65,0-.58,.7-.58,1.16v.33h.86v.41h-.86v3.42h-.47v-3.42Z" style="fill: #1d1d1b;"></path><path d="M50.51,17.43c-.33,.14-.76,.21-1.11,.21-1.27,0-1.74-.86-1.74-2s.65-2,1.61-2c1.08,0,1.52,.87,1.52,1.9v.24h-2.62c0,.81,.44,1.46,1.26,1.46,.35,0,.85-.14,1.07-.29v.48Zm-.23-2.06c0-.67-.27-1.33-.98-1.33s-1.13,.7-1.13,1.33h2.1Zm-.79-3.12h.59l-.95,1.08h-.34l.7-1.08Z" style="fill: #1d1d1b;"></path><path d="M55.31,17.55h-.47v-.61h-.01c-.26,.49-.65,.7-1.19,.7-1.05,0-1.58-.87-1.58-2s.45-2,1.58-2c.75,0,1.13,.55,1.19,.74h.01v-2.45h.47v5.63Zm-1.61-.31c.84,0,1.13-.9,1.13-1.6s-.29-1.6-1.13-1.6c-.9,0-1.13,.86-1.13,1.6s.23,1.6,1.13,1.6Z" style="fill: #1d1d1b;"></path><path d="M59.61,17.43c-.33,.14-.76,.21-1.11,.21-1.27,0-1.74-.86-1.74-2s.65-2,1.61-2c1.08,0,1.52,.87,1.52,1.9v.24h-2.62c0,.81,.44,1.46,1.26,1.46,.35,0,.85-.14,1.07-.29v.48Zm-.23-2.06c0-.67-.27-1.33-.98-1.33s-1.13,.7-1.13,1.33h2.1Zm-.79-3.12h.59l-.95,1.08h-.35l.7-1.08Z" style="fill: #1d1d1b;"></path><path d="M61.38,14.58c0-.42,0-.58-.03-.86h.47v.74h.01c.17-.43,.5-.83,.98-.83,.11,0,.25,.02,.33,.04v.5c-.1-.03-.23-.05-.35-.05-.75,0-.95,.84-.95,1.53v1.89h-.47v-2.97Z" style="fill: #1d1d1b;"></path><path d="M66.66,16.94h-.02c-.21,.46-.74,.71-1.22,.71-1.09,0-1.26-.74-1.26-1.08,0-1.28,1.37-1.34,2.36-1.34h.09v-.2c0-.65-.23-.98-.87-.98-.4,0-.77,.09-1.13,.31v-.46c.29-.14,.79-.26,1.13-.26,.95,0,1.34,.43,1.34,1.43v1.69c0,.31,0,.54,.04,.8h-.47v-.62Zm-.04-1.31h-.14c-.82,0-1.79,.08-1.79,.92,0,.5,.36,.69,.8,.69,1.11,0,1.13-.97,1.13-1.38v-.23Z" style="fill: #1d1d1b;"></path><path d="M70.45,14.13h-.87v2.48c0,.35,.13,.63,.51,.63,.18,0,.3-.04,.44-.09l.03,.39c-.11,.04-.35,.1-.58,.1-.84,0-.87-.58-.87-1.28v-2.24h-.75v-.41h.75v-.92l.47-.17v1.09h.87v.41Z" style="fill: #1d1d1b;"></path><path d="M72.35,12.71h-.47v-.63h.47v.63Zm-.47,1.02h.47v3.83h-.47v-3.83Z" style="fill: #1d1d1b;"></path><path d="M75.63,13.64c1.24,0,1.79,.96,1.79,2s-.55,2-1.79,2-1.79-.96-1.79-2,.55-2,1.79-2Zm0,3.6c.83,0,1.27-.71,1.27-1.6s-.44-1.6-1.27-1.6-1.27,.71-1.27,1.6,.44,1.6,1.27,1.6Z" style="fill: #1d1d1b;"></path><path d="M78.89,14.63c0-.29,0-.59-.03-.9h.46v.68h.02c.16-.35,.44-.77,1.24-.77,.95,0,1.31,.63,1.31,1.47v2.45h-.47v-2.33c0-.72-.25-1.19-.91-1.19-.86,0-1.13,.76-1.13,1.4v2.12h-.47v-2.93Z" style="fill: #1d1d1b;"></path><path d="M85.95,17c.29,.14,.63,.24,1,.24,.45,0,.85-.25,.85-.68,0-.91-1.84-.77-1.84-1.88,0-.76,.62-1.04,1.25-1.04,.2,0,.61,.04,.95,.17l-.04,.41c-.25-.11-.58-.18-.85-.18-.49,0-.83,.15-.83,.64,0,.71,1.88,.62,1.88,1.88,0,.81-.76,1.09-1.34,1.09-.37,0-.74-.04-1.07-.18l.04-.47Z" style="fill: #1d1d1b;"></path><path d="M92.73,16.65c0,.29,0,.59,.03,.9h-.46v-.68h-.01c-.16,.34-.44,.77-1.24,.77-.95,0-1.31-.63-1.31-1.47v-2.45h.47v2.33c0,.72,.26,1.19,.91,1.19,.86,0,1.13-.76,1.13-1.4v-2.12h.47v2.93Z" style="fill: #1d1d1b;"></path><path d="M94.98,12.71h-.47v-.63h.47v.63Zm-.47,1.02h.47v3.83h-.47v-3.83Z" style="fill: #1d1d1b;"></path><path d="M96.46,17c.29,.14,.63,.24,1,.24,.45,0,.85-.25,.85-.68,0-.91-1.84-.77-1.84-1.88,0-.76,.62-1.04,1.25-1.04,.2,0,.61,.04,.95,.17l-.04,.41c-.25-.11-.58-.18-.85-.18-.49,0-.83,.15-.83,.64,0,.71,1.88,.62,1.88,1.88,0,.81-.76,1.09-1.34,1.09-.37,0-.74-.04-1.07-.18l.05-.47Z" style="fill: #1d1d1b;"></path><path d="M99.97,17c.29,.14,.63,.24,1,.24,.45,0,.85-.25,.85-.68,0-.91-1.84-.77-1.84-1.88,0-.76,.62-1.04,1.25-1.04,.2,0,.61,.04,.95,.17l-.04,.41c-.25-.11-.58-.18-.85-.18-.49,0-.83,.15-.83,.64,0,.71,1.88,.62,1.88,1.88,0,.81-.76,1.09-1.34,1.09-.37,0-.74-.04-1.07-.18l.05-.47Z" style="fill: #1d1d1b;"></path><path d="M106.33,17.43c-.33,.14-.76,.21-1.11,.21-1.27,0-1.74-.86-1.74-2s.65-2,1.61-2c1.08,0,1.52,.87,1.52,1.9v.24h-2.62c0,.81,.44,1.46,1.26,1.46,.35,0,.85-.14,1.07-.29v.48Zm-.23-2.06c0-.67-.27-1.33-.98-1.33s-1.13,.7-1.13,1.33h2.1Z" style="fill: #1d1d1b;"></path><path d="M33.59,23.25c-.33-.17-.8-.23-1.17-.23-1.36,0-2.12,.96-2.12,2.26s.74,2.26,2.12,2.26c.35,0,.87-.04,1.17-.23l.03,.45c-.29,.17-.87,.23-1.2,.23-1.65,0-2.64-1.09-2.64-2.71s1.02-2.71,2.64-2.71c.31,0,.93,.05,1.2,.19l-.03,.48Z" style="fill: #1d1d1b;"></path><path d="M36.84,23.99c1.24,0,1.79,.96,1.79,2s-.55,2-1.79,2-1.79-.96-1.79-2,.55-2,1.79-2Zm0,3.6c.83,0,1.27-.71,1.27-1.6s-.44-1.6-1.27-1.6-1.27,.71-1.27,1.6,.44,1.6,1.27,1.6Z" style="fill: #1d1d1b;"></path><path d="M40.1,24.98c0-.29,0-.59-.03-.9h.46v.68h.02c.16-.35,.44-.77,1.24-.77,.95,0,1.31,.63,1.31,1.47v2.45h-.47v-2.33c0-.72-.25-1.19-.91-1.19-.86,0-1.13,.76-1.13,1.4v2.12h-.47v-2.93Z" style="fill: #1d1d1b;"></path><path d="M45.18,24.48h-.77v-.41h.77v-.28c0-.8,.03-1.61,1.01-1.61,.15,0,.35,.02,.44,.08l-.03,.41c-.1-.05-.24-.08-.38-.08-.65,0-.58,.7-.58,1.16v.33h.86v.41h-.86v3.42h-.47v-3.42Z" style="fill: #1d1d1b;"></path><path d="M50.51,27.78c-.33,.14-.76,.21-1.11,.21-1.27,0-1.74-.86-1.74-2s.65-2,1.61-2c1.08,0,1.52,.87,1.52,1.9v.24h-2.62c0,.81,.44,1.46,1.26,1.46,.35,0,.85-.14,1.07-.29v.48Zm-.23-2.06c0-.67-.27-1.33-.98-1.33s-1.13,.7-1.13,1.33h2.1Z" style="fill: #1d1d1b;"></path><path d="M55.31,27.9h-.47v-.61h-.01c-.26,.49-.65,.7-1.19,.7-1.05,0-1.58-.87-1.58-2s.45-2,1.58-2c.75,0,1.13,.55,1.19,.74h.01v-2.45h.47v5.63Zm-1.61-.31c.84,0,1.13-.9,1.13-1.6s-.29-1.6-1.13-1.6c-.9,0-1.13,.86-1.13,1.6s.23,1.6,1.13,1.6Z" style="fill: #1d1d1b;"></path><path d="M59.61,27.78c-.33,.14-.76,.21-1.11,.21-1.27,0-1.74-.86-1.74-2s.65-2,1.61-2c1.08,0,1.52,.87,1.52,1.9v.24h-2.62c0,.81,.44,1.46,1.26,1.46,.35,0,.85-.14,1.07-.29v.48Zm-.23-2.06c0-.67-.27-1.33-.98-1.33s-1.13,.7-1.13,1.33h2.1Z" style="fill: #1d1d1b;"></path><path d="M61.38,24.93c0-.42,0-.58-.03-.86h.47v.74h.01c.17-.43,.5-.83,.98-.83,.11,0,.25,.02,.33,.04v.5c-.1-.03-.23-.05-.35-.05-.75,0-.95,.84-.95,1.53v1.89h-.47v-2.97Z" style="fill: #1d1d1b;"></path><path d="M66.66,27.29h-.02c-.21,.46-.74,.71-1.22,.71-1.09,0-1.26-.74-1.26-1.08,0-1.28,1.37-1.34,2.36-1.34h.09v-.2c0-.65-.23-.98-.87-.98-.4,0-.77,.09-1.13,.31v-.46c.29-.14,.79-.26,1.13-.26,.95,0,1.34,.43,1.34,1.43v1.69c0,.31,0,.54,.04,.8h-.47v-.62Zm-.04-1.31h-.14c-.82,0-1.79,.08-1.79,.92,0,.5,.36,.69,.8,.69,1.11,0,1.13-.97,1.13-1.38v-.23Z" style="fill: #1d1d1b;"></path><path d="M68.45,27.51l2.3-3.02h-2.21v-.41h2.76v.41l-2.3,3.02h2.3v.41h-2.85v-.4Z" style="fill: #1d1d1b;"></path><path d="M73.19,23.06h-.47v-.63h.47v.63Zm-.47,1.02h.47v3.83h-.47v-3.83Z" style="fill: #1d1d1b;"></path><path d="M76.46,23.99c1.24,0,1.79,.96,1.79,2s-.55,2-1.79,2-1.79-.96-1.79-2,.55-2,1.79-2Zm0,3.6c.83,0,1.27-.71,1.27-1.6s-.44-1.6-1.27-1.6-1.27,.71-1.27,1.6,.44,1.6,1.27,1.6Z" style="fill: #1d1d1b;"></path><path d="M79.72,24.98c0-.29,0-.59-.03-.9h.46v.68h.02c.16-.35,.44-.77,1.24-.77,.95,0,1.31,.63,1.31,1.47v2.45h-.47v-2.33c0-.72-.25-1.19-.91-1.19-.86,0-1.13,.76-1.13,1.4v2.12h-.47v-2.93Z" style="fill: #1d1d1b;"></path><path d="M87.05,27.78c-.33,.14-.76,.21-1.11,.21-1.27,0-1.74-.86-1.74-2s.65-2,1.61-2c1.08,0,1.52,.87,1.52,1.9v.24h-2.62c0,.81,.44,1.46,1.26,1.46,.35,0,.85-.14,1.07-.29v.48Zm-.23-2.06c0-.67-.27-1.33-.98-1.33s-1.13,.7-1.13,1.33h2.1Z" style="fill: #1d1d1b;"></path><path d="M91.32,27.24c.31,.2,.67,.31,1.16,.31,.65,0,1.18-.33,1.18-1.07,0-1.03-2.4-1.16-2.4-2.53,0-.84,.74-1.37,1.66-1.37,.25,0,.67,.04,1.03,.17l-.08,.47c-.23-.13-.6-.2-.95-.2-.54,0-1.13,.23-1.13,.9,0,1.05,2.4,1.06,2.4,2.59,0,1.06-.91,1.48-1.72,1.48-.51,0-.91-.1-1.19-.23l.05-.53Z" style="fill: #1d1d1b;"></path><path d="M97.08,27.9h-.56l-1.3-3.83h.52l1.06,3.31h.01l1.11-3.31h.5l-1.34,3.83Z" style="fill: #1d1d1b;"></path><path d="M100.14,23.06h-.47v-.63h.47v.63Zm-.47,1.02h.47v3.83h-.47v-3.83Z" style="fill: #1d1d1b;"></path><path d="M101.57,27.51l2.3-3.02h-2.21v-.41h2.76v.41l-2.3,3.02h2.3v.41h-2.85v-.4Z" style="fill: #1d1d1b;"></path><path d="M105.48,27.51l2.3-3.02h-2.21v-.41h2.76v.41l-2.3,3.02h2.3v.41h-2.85v-.4Z" style="fill: #1d1d1b;"></path><path d="M112.32,27.78c-.33,.14-.76,.21-1.11,.21-1.27,0-1.74-.86-1.74-2s.65-2,1.61-2c1.08,0,1.52,.87,1.52,1.9v.24h-2.62c0,.81,.44,1.46,1.26,1.46,.35,0,.85-.14,1.07-.29v.48Zm-.23-2.06c0-.67-.27-1.33-.98-1.33s-1.13,.7-1.13,1.33h2.1Z" style="fill: #1d1d1b;"></path><path d="M114.09,24.93c0-.42,0-.58-.03-.86h.47v.74h.01c.17-.43,.5-.83,.98-.83,.11,0,.25,.02,.33,.04v.5c-.1-.03-.23-.05-.35-.05-.75,0-.95,.84-.95,1.53v1.89h-.47v-2.97Z" style="fill: #1d1d1b;"></path><path d="M119.37,27.29h-.02c-.21,.46-.74,.71-1.22,.71-1.09,0-1.26-.74-1.26-1.08,0-1.28,1.37-1.34,2.36-1.34h.09v-.2c0-.65-.23-.98-.87-.98-.4,0-.77,.09-1.13,.31v-.46c.29-.14,.79-.26,1.13-.26,.95,0,1.34,.43,1.34,1.43v1.69c0,.31,0,.54,.04,.8h-.47v-.62Zm-.05-1.31h-.14c-.82,0-1.79,.08-1.79,.92,0,.5,.36,.69,.8,.69,1.11,0,1.13-.97,1.13-1.38v-.23Z" style="fill: #1d1d1b;"></path><path d="M33.59,33.6c-.33-.17-.8-.23-1.17-.23-1.36,0-2.12,.96-2.12,2.26s.74,2.26,2.12,2.26c.35,0,.87-.04,1.17-.23l.03,.45c-.29,.17-.87,.23-1.2,.23-1.65,0-2.64-1.09-2.64-2.71s1.02-2.71,2.64-2.71c.31,0,.93,.05,1.2,.19l-.03,.48Z" style="fill: #1d1d1b;"></path><path d="M36.84,34.34c1.24,0,1.79,.96,1.79,2s-.55,2-1.79,2-1.79-.96-1.79-2,.55-2,1.79-2Zm0,3.6c.83,0,1.27-.71,1.27-1.6s-.44-1.6-1.27-1.6-1.27,.71-1.27,1.6,.44,1.6,1.27,1.6Z" style="fill: #1d1d1b;"></path><path d="M40.1,35.33c0-.29,0-.59-.03-.9h.46v.68h.02c.16-.35,.44-.77,1.24-.77,.95,0,1.31,.63,1.31,1.47v2.45h-.47v-2.33c0-.72-.25-1.19-.91-1.19-.86,0-1.13,.76-1.13,1.4v2.12h-.47v-2.93Z" style="fill: #1d1d1b;"></path><path d="M45.18,34.83h-.77v-.41h.77v-.28c0-.8,.03-1.61,1.01-1.61,.15,0,.35,.02,.44,.08l-.03,.41c-.1-.05-.24-.08-.38-.08-.65,0-.58,.7-.58,1.16v.33h.86v.41h-.86v3.42h-.47v-3.42Z" style="fill: #1d1d1b;"></path><path d="M50.51,38.13c-.33,.14-.76,.21-1.11,.21-1.27,0-1.74-.86-1.74-2s.65-2,1.61-2c1.08,0,1.52,.87,1.52,1.9v.24h-2.62c0,.81,.44,1.46,1.26,1.46,.35,0,.85-.14,1.07-.29v.48Zm-.23-2.06c0-.67-.27-1.33-.98-1.33s-1.13,.7-1.13,1.33h2.1Z" style="fill: #1d1d1b;"></path><path d="M55.31,38.25h-.47v-.61h-.01c-.26,.49-.65,.7-1.19,.7-1.05,0-1.58-.87-1.58-2s.45-2,1.58-2c.75,0,1.13,.55,1.19,.74h.01v-2.45h.47v5.63Zm-1.61-.31c.84,0,1.13-.9,1.13-1.6s-.29-1.6-1.13-1.6c-.9,0-1.13,.86-1.13,1.6s.23,1.6,1.13,1.6Z" style="fill: #1d1d1b;"></path><path d="M59.61,38.13c-.33,.14-.76,.21-1.11,.21-1.27,0-1.74-.86-1.74-2s.65-2,1.61-2c1.08,0,1.52,.87,1.52,1.9v.24h-2.62c0,.81,.44,1.46,1.26,1.46,.35,0,.85-.14,1.07-.29v.48Zm-.23-2.06c0-.67-.27-1.33-.98-1.33s-1.13,.7-1.13,1.33h2.1Z" style="fill: #1d1d1b;"></path><path d="M61.38,35.28c0-.42,0-.58-.03-.86h.47v.74h.01c.17-.43,.5-.83,.98-.83,.11,0,.25,.02,.33,.04v.5c-.1-.03-.23-.05-.35-.05-.75,0-.95,.84-.95,1.53v1.89h-.47v-2.97Z" style="fill: #1d1d1b;"></path><path d="M66.66,37.64h-.02c-.21,.46-.74,.71-1.22,.71-1.09,0-1.26-.74-1.26-1.08,0-1.28,1.37-1.34,2.36-1.34h.09v-.2c0-.65-.23-.98-.87-.98-.4,0-.77,.09-1.13,.31v-.46c.29-.14,.79-.26,1.13-.26,.95,0,1.34,.43,1.34,1.43v1.69c0,.31,0,.54,.04,.8h-.47v-.62Zm-.04-1.31h-.14c-.82,0-1.79,.08-1.79,.92,0,.5,.36,.69,.8,.69,1.11,0,1.13-.97,1.13-1.38v-.23Z" style="fill: #1d1d1b;"></path><path d="M68.45,37.86l2.3-3.02h-2.21v-.41h2.76v.41l-2.3,3.02h2.3v.41h-2.85v-.4Z" style="fill: #1d1d1b;"></path><path d="M73.19,33.41h-.47v-.63h.47v.63Zm-.47,1.02h.47v3.83h-.47v-3.83Z" style="fill: #1d1d1b;"></path><path d="M77.95,37.35c0,.29,0,.59,.03,.9h-.46v-.68h-.01c-.16,.34-.44,.77-1.24,.77-.95,0-1.31-.63-1.31-1.47v-2.45h.47v2.33c0,.72,.26,1.19,.91,1.19,.86,0,1.13-.76,1.13-1.4v-2.12h.47v2.93Z" style="fill: #1d1d1b;"></path><path d="M79.72,35.33c0-.29,0-.59-.03-.9h.46v.68h.02c.16-.35,.44-.77,1.24-.77,.95,0,1.31,.63,1.31,1.47v2.45h-.47v-2.33c0-.72-.25-1.19-.91-1.19-.86,0-1.13,.76-1.13,1.4v2.12h-.47v-2.93Z" style="fill: #1d1d1b;"></path><path d="M86.78,37.7c.29,.14,.63,.24,1,.24,.45,0,.85-.25,.85-.68,0-.91-1.84-.77-1.84-1.88,0-.76,.62-1.04,1.25-1.04,.2,0,.61,.04,.95,.17l-.04,.41c-.25-.11-.58-.18-.85-.18-.49,0-.83,.15-.83,.64,0,.71,1.88,.62,1.88,1.88,0,.81-.76,1.09-1.34,1.09-.37,0-.74-.04-1.07-.18l.04-.47Z" style="fill: #1d1d1b;"></path><path d="M91.91,38.25h-.56l-1.3-3.83h.52l1.06,3.31h.02l1.11-3.31h.5l-1.34,3.83Z" style="fill: #1d1d1b;"></path><path d="M94.97,33.41h-.47v-.63h.47v.63Zm-.47,1.02h.47v3.83h-.47v-3.83Z" style="fill: #1d1d1b;"></path><path d="M96.4,37.86l2.3-3.02h-2.21v-.41h2.76v.41l-2.3,3.02h2.3v.41h-2.85v-.4Z" style="fill: #1d1d1b;"></path><path d="M100.66,35.28c0-.42,0-.58-.03-.86h.47v.74h.01c.17-.43,.5-.83,.98-.83,.11,0,.25,.02,.33,.04v.5c-.1-.03-.23-.05-.35-.05-.75,0-.95,.84-.95,1.53v1.89h-.47v-2.97Z" style="fill: #1d1d1b;"></path><path d="M105.95,37.64h-.02c-.21,.46-.74,.71-1.22,.71-1.09,0-1.26-.74-1.26-1.08,0-1.28,1.37-1.34,2.36-1.34h.09v-.2c0-.65-.23-.98-.87-.98-.4,0-.77,.09-1.13,.31v-.46c.29-.14,.79-.26,1.13-.26,.95,0,1.34,.43,1.34,1.43v1.69c0,.31,0,.54,.04,.8h-.47v-.62Zm-.04-1.31h-.14c-.82,0-1.79,.08-1.79,.92,0,.5,.36,.69,.8,.69,1.11,0,1.13-.97,1.13-1.38v-.23Z" style="fill: #1d1d1b;"></path><path d="M21.27,1.74s-3.97-1.74-10.61-1.74h0C4.01,0,.04,1.74,.04,1.74,.04,1.74-.32,9.43,1.19,13.79c2.66,7.65,9.46,9.8,9.46,9.8h0s6.8-2.15,9.46-9.8c1.51-4.35,1.15-12.05,1.15-12.05Z" style="fill: #e30613;"></path><polygon points="17.71 8.37 17.71 12.61 12.76 12.61 12.76 17.56 8.52 17.56 8.52 12.61 3.57 12.61 3.57 8.37 8.52 8.37 8.52 3.43 12.76 3.43 12.76 8.37 17.71 8.37" style="fill: #fff;"></polygon></g></g></svg>