<svg xmlns="http://www.w3.org/2000/svg" id="Layer_1" data-name="Layer 1" viewBox="0 0 988.56 220.43"><rect x="10.03" y="10.04" width="294.95" height="200.28" style="fill: none;"></rect><path d="M15.7,15.54V204.61H299.3V15.54H15.7ZM85.72,107.26l7.49,.02,2.29-7.17,2.29,7.16h7.49l-6.07,4.37,2.27,7.06-5.98-4.37-5.98,4.37,2.28-7.06-6.08-4.37Zm24.08,42.45l-5.98-4.38-5.98,4.38,2.28-7.06-6.07-4.37h7.49s2.29-7.16,2.29-7.16l2.29,7.16h7.49l-6.07,4.37,2.28,7.06Zm-2.28-69.02l2.28,7.06-5.98-4.37-5.98,4.37,2.28-7.06-6.07-4.37h7.49s2.29-7.16,2.29-7.16l2.29,7.16h7.49l-6.07,4.37Zm16.66-27.07l2.29-7.16,2.29,7.16h7.49l-6.08,4.37,2.27,7.06-5.98-4.37-5.98,4.37,2.27-7.06-6.07-4.37h7.49Zm8.32,118.8l-5.98-4.37-5.98,4.37,2.27-7.06-6.07-4.37h7.49s2.29-7.15,2.29-7.15l2.29,7.15h7.49l-6.07,4.37,2.27,7.06Zm22.65-127.11l2.29-7.16,2.29,7.15h7.49l-6.08,4.37,2.28,7.06-5.98-4.37-5.98,4.37,2.28-7.06-6.07-4.37h7.49Zm8.28,135.34l-5.98-4.37-5.98,4.37,2.27-7.06-6.07-4.37h7.49s2.29-7.16,2.29-7.16l2.29,7.16h7.49l-6.08,4.37,2.28,7.06Zm30.93-8.23l-5.98-4.37-5.98,4.37,2.27-7.06-6.07-4.37h7.48s2.3-7.15,2.3-7.15l2.29,7.15h7.49l-6.08,4.37,2.28,7.06Zm-2.19-114.42l2.27,7.06-5.98-4.38-5.99,4.38,2.27-7.06-6.07-4.38,7.49,.02,2.29-7.16,2.29,7.15h7.5l-6.08,4.38Zm16.61,18.26l2.3-7.16,2.3,7.16h7.48l-6.08,4.36,2.28,7.06-5.98-4.37-5.98,4.37,2.28-7.06-6.08-4.36h7.48Zm8.28,73.47l-5.98-4.38-5.98,4.38,2.28-7.06-6.08-4.37h7.48s2.3-7.16,2.3-7.16l2.3,7.16h7.48l-6.08,4.37,2.28,7.06Zm8.22-31.11l-5.98-4.38-5.98,4.38,2.27-7.06-6.08-4.37h7.49s2.29-7.16,2.29-7.16l2.3,7.16h7.49l-6.08,4.37,2.27,7.06Z" style="fill: #039;"></path><text transform="translate(335.54 86.71)" style="fill: #039; font-family: Arial-BoldMT, Arial; font-size: 65px;"><tspan x="0" y="0">Co-funded by</tspan><tspan x="0" y="78">the European Union</tspan></text></svg>